<mxfile host="app.diagrams.net" modified="2023-05-18T03:47:51.571Z" agent="Mozilla/5.0 (Windows NT 10.0; Win64; x64) AppleWebKit/537.36 (KHTML, like Gecko) Chrome/113.0.0.0 Safari/537.36 Edg/113.0.1774.42" etag="aSR9uVuQYSYgId6zXgQr" version="21.2.3" type="github">
  <diagram id="C5RBs43oDa-KdzZeNtuy" name="Page-1">
    <mxGraphModel dx="1166" dy="793" grid="0" gridSize="10" guides="1" tooltips="1" connect="1" arrows="1" fold="1" page="1" pageScale="1" pageWidth="827" pageHeight="1169" math="0" shadow="0">
      <root>
        <mxCell id="WIyWlLk6GJQsqaUBKTNV-0" />
        <mxCell id="WIyWlLk6GJQsqaUBKTNV-1" parent="WIyWlLk6GJQsqaUBKTNV-0" />
        <mxCell id="pWbdkEO55zlSCVrnX6s8-3" value="" style="edgeStyle=none;curved=1;rounded=0;orthogonalLoop=1;jettySize=auto;html=1;fontSize=12;startSize=8;endSize=8;labelBackgroundColor=none;strokeColor=#E07A5F;fontColor=default;" edge="1" parent="WIyWlLk6GJQsqaUBKTNV-1" source="WIyWlLk6GJQsqaUBKTNV-3" target="pWbdkEO55zlSCVrnX6s8-0">
          <mxGeometry relative="1" as="geometry" />
        </mxCell>
        <mxCell id="WIyWlLk6GJQsqaUBKTNV-3" value="&lt;b&gt;开始&lt;/b&gt;" style="rounded=1;whiteSpace=wrap;html=1;fontSize=12;glass=0;strokeWidth=1;shadow=0;labelBackgroundColor=none;fillColor=#F2CC8F;strokeColor=#E07A5F;fontColor=#393C56;" parent="WIyWlLk6GJQsqaUBKTNV-1" vertex="1">
          <mxGeometry x="195" y="110" width="120" height="40" as="geometry" />
        </mxCell>
        <mxCell id="pWbdkEO55zlSCVrnX6s8-5" value="" style="edgeStyle=none;curved=1;rounded=0;orthogonalLoop=1;jettySize=auto;html=1;fontSize=12;startSize=8;endSize=8;labelBackgroundColor=none;strokeColor=#E07A5F;fontColor=default;" edge="1" parent="WIyWlLk6GJQsqaUBKTNV-1" source="pWbdkEO55zlSCVrnX6s8-0" target="pWbdkEO55zlSCVrnX6s8-4">
          <mxGeometry relative="1" as="geometry" />
        </mxCell>
        <mxCell id="pWbdkEO55zlSCVrnX6s8-0" value="将128bit的种子秘钥分成4个32bit的数,SK0,SK1,SK2,SK3" style="rounded=0;whiteSpace=wrap;html=1;fontSize=16;labelBackgroundColor=none;fillColor=#F2CC8F;strokeColor=#E07A5F;fontColor=#393C56;" vertex="1" parent="WIyWlLk6GJQsqaUBKTNV-1">
          <mxGeometry x="137.5" y="180" width="235" height="60" as="geometry" />
        </mxCell>
        <mxCell id="pWbdkEO55zlSCVrnX6s8-8" value="" style="edgeStyle=none;curved=1;rounded=0;orthogonalLoop=1;jettySize=auto;html=1;fontSize=12;startSize=8;endSize=8;labelBackgroundColor=none;strokeColor=#E07A5F;fontColor=default;" edge="1" parent="WIyWlLk6GJQsqaUBKTNV-1" source="pWbdkEO55zlSCVrnX6s8-4">
          <mxGeometry relative="1" as="geometry">
            <mxPoint x="295" y="318.9795918367347" as="targetPoint" />
          </mxGeometry>
        </mxCell>
        <mxCell id="pWbdkEO55zlSCVrnX6s8-10" value="" style="edgeStyle=none;curved=1;rounded=0;orthogonalLoop=1;jettySize=auto;html=1;fontSize=12;startSize=8;endSize=8;labelBackgroundColor=none;strokeColor=#E07A5F;fontColor=default;" edge="1" parent="WIyWlLk6GJQsqaUBKTNV-1" source="pWbdkEO55zlSCVrnX6s8-4" target="pWbdkEO55zlSCVrnX6s8-9">
          <mxGeometry relative="1" as="geometry" />
        </mxCell>
        <mxCell id="pWbdkEO55zlSCVrnX6s8-4" value="给定系统参数&lt;br data-darkreader-inline-outline=&quot;&quot; style=&quot;-webkit-tap-highlight-color: rgba(0, 0, 0, 0); outline: none; box-sizing: border-box; font-family: -apple-system, &amp;quot;SF UI Text&amp;quot;, Arial, &amp;quot;PingFang SC&amp;quot;, &amp;quot;Hiragino Sans GB&amp;quot;, &amp;quot;Microsoft YaHei&amp;quot;, &amp;quot;WenQuanYi Micro Hei&amp;quot;, sans-serif, SimHei, SimSun; text-align: left; --darkreader-inline-outline: initial;&quot;&gt;&lt;span style=&quot;font-family: -apple-system, &amp;quot;SF UI Text&amp;quot;, Arial, &amp;quot;PingFang SC&amp;quot;, &amp;quot;Hiragino Sans GB&amp;quot;, &amp;quot;Microsoft YaHei&amp;quot;, &amp;quot;WenQuanYi Micro Hei&amp;quot;, sans-serif, SimHei, SimSun; text-align: left;&quot;&gt;FK = (FK0, FK1, FK2, FK3)&lt;/span&gt;" style="whiteSpace=wrap;html=1;fontSize=16;rounded=0;labelBackgroundColor=none;fillColor=#F2CC8F;strokeColor=#E07A5F;fontColor=#393C56;" vertex="1" parent="WIyWlLk6GJQsqaUBKTNV-1">
          <mxGeometry x="135" y="280" width="240" height="60" as="geometry" />
        </mxCell>
        <mxCell id="pWbdkEO55zlSCVrnX6s8-12" value="" style="edgeStyle=none;curved=1;rounded=0;orthogonalLoop=1;jettySize=auto;html=1;fontSize=12;startSize=8;endSize=8;labelBackgroundColor=none;strokeColor=#E07A5F;fontColor=default;" edge="1" parent="WIyWlLk6GJQsqaUBKTNV-1" source="pWbdkEO55zlSCVrnX6s8-9" target="pWbdkEO55zlSCVrnX6s8-11">
          <mxGeometry relative="1" as="geometry" />
        </mxCell>
        <mxCell id="pWbdkEO55zlSCVrnX6s8-9" value="计算轮密钥&lt;span style=&quot;font-family: -apple-system, &amp;quot;SF UI Text&amp;quot;, Arial, &amp;quot;PingFang SC&amp;quot;, &amp;quot;Hiragino Sans GB&amp;quot;, &amp;quot;Microsoft YaHei&amp;quot;, &amp;quot;WenQuanYi Micro Hei&amp;quot;, sans-serif, SimHei, SimSun; text-align: left;&quot;&gt;(K0,K1,K2,K3) = (SK0⊕FK0,SK1⊕FK1,SK2⊕FK2,SK3⊕FK3)&lt;/span&gt;" style="whiteSpace=wrap;html=1;fontSize=16;rounded=0;labelBackgroundColor=none;fillColor=#F2CC8F;strokeColor=#E07A5F;fontColor=#393C56;" vertex="1" parent="WIyWlLk6GJQsqaUBKTNV-1">
          <mxGeometry x="40" y="380" width="430" height="60" as="geometry" />
        </mxCell>
        <mxCell id="pWbdkEO55zlSCVrnX6s8-11" value="&lt;div style=&quot;&quot;&gt;&lt;span data-darkreader-inline-bgcolor=&quot;&quot; style=&quot;--darkreader-inline-bgcolor: transparent; background-color: transparent;&quot;&gt;RKi=Ki+4&lt;/span&gt;&lt;span data-darkreader-inline-bgcolor=&quot;&quot; style=&quot;font-family: -apple-system, &amp;quot;SF UI Text&amp;quot;, Arial, &amp;quot;PingFang SC&amp;quot;, &amp;quot;Hiragino Sans GB&amp;quot;, &amp;quot;Microsoft YaHei&amp;quot;, &amp;quot;WenQuanYi Micro Hei&amp;quot;, sans-serif, SimHei, SimSun; --darkreader-inline-bgcolor: transparent; background-color: transparent;&quot;&gt; = Ki&lt;/span&gt;&lt;/div&gt;⊕T&#39;(Ki+1⊕Ki+2⊕Ki+3⊕CKi)&lt;br&gt;其中L&#39;(B)=B⊕(B&amp;lt;&amp;lt;13)⊕&lt;br&gt;(B&amp;lt;&amp;lt;23)" style="whiteSpace=wrap;html=1;fontSize=16;rounded=0;align=center;labelBackgroundColor=none;fillColor=#F2CC8F;strokeColor=#E07A5F;fontColor=#393C56;" vertex="1" parent="WIyWlLk6GJQsqaUBKTNV-1">
          <mxGeometry x="40" y="470" width="430" height="80" as="geometry" />
        </mxCell>
      </root>
    </mxGraphModel>
  </diagram>
</mxfile>
